<?xml version="1.0" standalone="no"?>
<!DOCTYPE svg PUBLIC "-//W3C//DTD SVG 20010904//EN"
 "http://www.w3.org/TR/2001/REC-SVG-20010904/DTD/svg10.dtd">
<svg version="1.0" xmlns="http://www.w3.org/2000/svg"
 width="225.000000pt" height="225.000000pt" viewBox="0 0 225.000000 225.000000"
 preserveAspectRatio="xMidYMid meet">

<g transform="translate(0.000000,225.000000) scale(0.100000,-0.100000)"
fill="#000000" stroke="none">
<path d="M1061 1828 c-29 -5 -60 -13 -69 -19 -14 -8 -13 -9 5 -4 30 8 131 8
179 0 92 -17 211 -92 239 -150 17 -37 14 -86 -7 -112 -13 -17 2 -17 36 -2 24
11 56 62 56 89 0 54 -93 137 -195 175 -61 23 -172 33 -244 23z"/>
<path d="M949 1548 c-55 -43 -88 -108 -89 -174 0 -90 39 -158 114 -196 45 -23
153 -38 142 -20 -4 7 -16 12 -28 12 -39 0 -117 52 -148 98 -61 92 -49 201 30
281 40 40 33 39 -21 -1z"/>
<path d="M1508 1563 c-22 -5 -22 -7 -3 -61 18 -51 21 -168 6 -232 -23 -100
-80 -186 -164 -246 -73 -52 -78 -58 -32 -39 56 23 124 68 162 107 86 91 136
247 115 364 -19 109 -29 122 -84 107z"/>
<path d="M1124 860 c32 -4 77 -14 100 -21 51 -17 136 -67 136 -82 0 -5 3 -8 6
-5 6 7 39 -24 75 -73 28 -37 61 -106 73 -152 6 -25 11 -28 39 -25 29 3 32 6
29 33 -2 17 -20 61 -40 99 -79 147 -238 238 -412 235 l-65 -2 59 -7z"/>
<path d="M999 632 c-40 -18 -119 -102 -119 -128 0 -22 47 4 54 31 3 12 26 41
51 64 43 40 46 47 14 33z"/>
<path d="M1383 493 c15 -2 39 -2 55 0 15 2 2 4 -28 4 -30 0 -43 -2 -27 -4z"/>
</g>
</svg>
